# xmcd
#
# Track frame offsets:
#	150
#	18972
#	39655
#	60630
#	83025
#	103415
#	120770
#	147207
#	166662
#	185635
#	206567
#	224332
#
# Disc length: 3280 seconds
#
# Revision: 1
# Processed by: cddbd v1.5PL3 Copyright (c) Steve Scherf et al.
# Submitted via: audiograbber 1.83.01
#
DISCID=a10cce0c
DTITLE=John Ellison - Missing You
DYEAR=2000
DGENRE=Blues
TTITLE0=I can do better than this
TTITLE1=Good good good
TTITLE2=Missing you
TTITLE3=Not in this lifetime
TTITLE4=What can I do
TTITLE5=I bet you want some
TTITLE6=I give you my love
TTITLE7=It's about time
TTITLE8=You can count on me
TTITLE9=I'm in the mood for love
TTITLE10=Got my eyes on you
TTITLE11=I don't need you no more
EXTD=Bogalusa Records
EXTT0=
EXTT1=
EXTT2=
EXTT3=
EXTT4=
EXTT5=
EXTT6=
EXTT7=
EXTT8=
EXTT9=
EXTT10=
EXTT11=
PLAYORDER=
